<?xml version="1.0" encoding="utf-8"?>
<!-- Generator: Adobe Illustrator 15.0.0, SVG Export Plug-In . SVG Version: 6.00 Build 0)  -->
<!DOCTYPE svg PUBLIC "-//W3C//DTD SVG 1.1//EN" "http://www.w3.org/Graphics/SVG/1.1/DTD/svg11.dtd">
<svg version="1.1" id="Layer_1" xmlns="http://www.w3.org/2000/svg" xmlns:xlink="http://www.w3.org/1999/xlink" x="0px" y="0px"
	 width="337.483px" height="425.197px" viewBox="0 0 337.483 425.197" enable-background="new 0 0 337.483 425.197"
	 xml:space="preserve">
<g>
	<path fill-rule="evenodd" clip-rule="evenodd" d="M314.022,287.79c-1.438-13.813-4.762-26.82-9.715-36.99c0-0.497,0-0.995,0-1.494
		c-2.236-3.044-3.339-7.318-5.044-10.835c-1.769-3.648-3.812-7.26-5.044-11.208c-0.585-1.875-0.732-3.963-1.308-5.979
		c-0.721-2.533-2.454-5.238-3.735-7.846c-1.305-2.655-2.327-5.628-3.737-7.845c-1.364-2.147-3.343-3.971-4.67-6.166
		c-4.116-6.804-8.029-14.003-12.144-20.549c-2.531-0.515-4.606-0.834-6.538-2.429c-2.6-2.147-4.871-6.154-7.285-7.285
		c-1.374-0.644-3.872-0.586-5.977-0.935c-3.9-0.646-6.988-1.051-9.903,0.187c-0.233-1.322-1.058-2.054-1.119-3.549
		c2.644-0.084,5.255,0.6,7.658,0.747c2.273,0.139,4.978,0.625,6.539-0.934c0.047-1.319-1.718-2.374-2.428-3.55
		c-8.869-15.922-14.45-36.547-21.671-53.989c-4.678-11.297-8.852-22.02-16.439-30.264c-3.131-3.401-6.149-6.876-9.715-8.967
		c-2.088-1.225-4.496-2.064-6.725-3.176c-2.135-1.064-4.399-2.031-6.539-3.362c2.982-9.352,9.695-16.817,16.626-22.23
		c3.912-3.055,8.143-5.591,13.451-7.099c0.346-0.775,0.971-1.271,1.121-2.242c-1.657-1.691-4.052-2.488-6.165-3.549
		c-5.54-2.781-10.793-5.745-16.627-8.033c-1.099-0.431-2.511-0.715-3.362-1.682c-1.663,0.518-2.63-0.586-3.736-0.933
		c-2.784-0.875-5.978-1.184-8.406-2.803c-2.962-0.072-5.78-1.341-8.967-1.868c-4.449-0.736-9.537,0.604-14.011-0.934
		c-5.29,1.151-9.234,0.649-14.759,1.682c-0.562,0.539-0.651-0.446-1.494-0.188c-5.68,0.921-10.283,2.919-15.692,4.111
		c-3.835,2.295-8.817,2.772-12.89,4.67c-3.597,1.675-7.216,4.104-10.648,6.352c-1.766,1.156-3.753,1.986-5.417,3.175
		c-1.653,1.182-3.069,2.694-4.67,3.923c-3.227,2.48-6.171,5.192-8.78,8.22c-4.619,5.359-8.292,10.859-10.835,17.934
		c-1.044,2.905-2.427,5.866-2.989,8.78c-0.194,1.002,0.034,2.141-0.188,3.176c-0.45,2.107-1.504,4.112-1.681,6.538
		c-0.123,1.685-0.185,2.93-0.374,4.484c-1.414,11.653,1.337,23.224,3.176,33.999c0.462,2.71,0.536,5.463,0.934,8.22
		c0.833,5.785,2.033,11.623,3.176,17.187c1.187,5.777,2.428,11.204,3.736,16.439c0.932,3.729,1.501,6.958,2.242,10.835
		c0.704,3.681,1.979,7.311,2.802,11.021c2.514,11.337,5.594,22.417,8.22,33.253c-4.388,3.582-9.79,6.151-17,6.912
		c-1.714,2.152,0.245,5.603-0.374,8.033c-3.103,1.568-7.679,1.662-10.835,3.175c-0.481,0.992,0.15,1.951,0,3.176
		c-4.006,0.655-7.032,1.395-11.208,0.747c-1.969,1.65-1.02,3.788-0.747,6.727c0.282,3.037-0.398,5.63,0.747,7.099
		c2.393,0.275,3.208-1.027,5.417-0.935c-8.802,12.491-19.078,24.021-27.462,38.67c-6.733,11.768-14.351,24.714-19.428,38.297
		c-0.468,1.253-2.195,5.779,0.374,5.791c1.443,0.006,1.269-1.581,1.682-2.99c1.714-5.86,4.813-11.33,6.538-16.812
		c4.138-5.887,6.884-13.166,11.208-18.868c5.188-11.557,13.966-21.966,21.484-32.132c1.055-1.429,2.562-3.102,3.923-5.044
		c1.165-1.661,2.714-4.38,3.923-5.044c1.149-0.631,2.968-0.697,4.296-1.121c4.628-1.473,8.041-2.96,12.143-4.67
		c1.512,16.368,3.007,33.939,4.483,51.187c-4.628,7.044-8.893,14.02-14.758,20.549c-2.671,2.973-5.335,6.312-8.033,9.526
		c-2.801,3.341-5.965,6.274-7.659,10.089c-2.549,5.739-0.433,11.942,2.055,16.066c2.357,3.907,5.4,8.284,7.285,12.704
		c1.41,3.302,2.478,6.743,3.549,10.273c0.303,0.998-0.051,3.175,2.056,3.362c1.229-1.826,0.242-4.108-0.188-5.791
		c-0.822-3.225-1.802-5.466-2.802-7.659c-1.729-3.792-3.214-6.751-5.231-10.089c-1.522-2.519-3.429-5.147-4.11-7.471
		c-0.862-2.942,0.112-6.373-0.747-8.969c0.556-1.996,1.819-3.285,2.428-5.229c6.089-6.801,11.891-13.89,18.121-20.549
		c0.9,5.452,1.641,11.52,2.429,17.746c0.684,5.404,1.64,11.264,1.868,16.439c0.495,11.248-0.589,22.592,5.044,28.209
		c1.631,1.626,4.233,1.621,5.791,3.362c-0.16,3.418,3.651,4.487,5.604,6.911c2.464,3.06,2.456,7.126-2.428,7.287
		c-0.16,1.431-0.765,2.623-1.308,4.11c3.083,0.107,6.04-1.852,7.66-3.363c0.327-0.305,1.961-1.789,2.242-2.241
		c3.309-5.346-2.785-11.225-5.604-13.076c-1.903-1.252-3.861-1.215-4.857-2.804c-1.226-1.954-1.091-5.237-1.681-7.472
		c1.583,0.237,3.136,0.033,4.67-0.561c0.583-1.217,0.373-2.84,0.934-4.109c0.966-2.187,6.92-7.52,8.967-3.551
		c2.288,4.438-4.058,8.217-2.428,13.264c3.237,7.096,3.675,16.822,4.109,25.967c1.371,0.125,1.619-0.872,2.803-0.935
		c0.666,1.314,0.952,3.072,2.615,2.99c0.734-0.037,2.45-2.067,3.363-3.362c1.026-1.458,1.54-3.109,2.428-4.484
		c1.185-1.83,2.881-4.219,3.55-6.164c0.934-2.72,0.605-4.259,0.56-6.538c-0.035-1.754,0.257-3.605,0.187-5.231
		c-0.31-7.171-2.921-14.185-5.044-21.109c-0.312-1.019-0.166-2.135-0.374-3.177c-3.056-15.263-8.145-29.95-10.274-44.087
		c-2.285-6.582-3.309-13.911-5.231-20.923c-1.442-5.26-2.74-10.717-3.735-15.506c-0.346-1.661-0.224-3.828-1.682-5.044
		c-1.11,0.447-1.147,1.967-1.868,2.803c-0.831-1.288-0.01-4.225-1.682-4.671c-0.483,3.923,0.871,7.99,1.682,11.957
		c5.265,25.744,9.834,53.314,14.571,79.768c-6.219-3.199-11.842,1.769-14.945,5.604c-4.774-38.218-8.458-77.75-12.143-117.132
		c3.478-1.686,8.152-4.285,11.208-6.725c1.157-0.923,2.508-1.769,3.363-2.615c1.298-1.286,2.38-4.209,4.297-4.296
		c1.818-0.084,2.904,2.248,4.11,3.362c3.572,3.02,7.585,5.758,11.956,8.407c7.781,4.714,17.37,7.845,26.714,11.021
		c3.517,1.195,6.615,1.651,10.274,2.802c1.872,0.587,3.72,1.202,5.605,1.682c3.828,0.972,7.561,2.616,11.022,2.988
		c2.909,0.313,5.078-0.428,7.473,0.188c1.846-2.389,6-2.47,6.352-6.353c4.392-6.2,7.055-13.959,10.088-21.296
		c0.562-1.362,1.951-2.451,1.494-4.109c-1.659-0.264-1.688,1.534-2.056,2.428c-0.979,2.38-1.884,4.3-2.802,6.352
		c-0.526,1.178-0.646,2.479-1.121,3.55c-0.503,1.134-1.441,2.208-2.056,3.361c-1.996,3.754-3.792,7.58-6.164,10.649
		c-1.512,0.356-2.271,1.465-3.55,2.055c-6.367,2.02-11.861-0.439-17.373-1.868c-9.828-2.548-19.58-5.675-28.396-8.593
		c-5.909-1.956-11.665-4.927-16.626-8.033c-5.139-3.218-9.799-7.229-13.076-11.582c0.508-0.488,0.629-1.364,1.308-1.682
		c1.815,0.188,3.162,0.162,4.67-0.374c1.871-0.664,3.794-1.8,5.791-2.615c2.29-0.935,4.598-1.716,6.165-2.615
		c12.33-7.077,12.468-25.807,17-39.978c8.396-3.436,17.039-3.095,26.901-4.11c1.837,1.612,3.23,4.316,6.351,5.044
		c2.774,0.647,8.209-0.322,8.033-2.242c-0.126-1.368-0.965-0.58-2.429-1.495c-1.317-0.824-3.102-3.77-0.561-4.297
		c2.412,0.592,3.149,3.02,4.857,4.11c3.4,2.172,8.527,1.385,12.143,0.374c1.599-0.448,3.631-1.1,4.857-1.868
		c1.547-0.971,3.172-2.99,5.23-3.176c1.697-0.153,3.312,0.661,4.856,0.747c1.961,0.11,4.564-0.135,6.166-0.747
		c1.412-0.54,2.386-1.831,3.735-1.868c1.816-0.05,2.947,1.428,4.671,2.055c1.644,0.597,3.077,0.378,4.67,1.121
		c-0.802,3.932-1.396,8.07-2.616,11.582c-1.363-5.503-7.989-6.636-13.823-7.846c-2.007-0.417-5.617-1.641-6.352,0
		c1.903,1.441,4.996,1.246,7.846,1.868c1.059,0.23,2.468,0.895,3.735,1.308c1.247,0.405,2.682,0.693,3.551,1.121
		c2.766,1.362,2.812,3.711,2.615,6.539c0.828,0.629,1.798-1.01,2.056-0.934c-0.516,1.932-2.633,2.977-3.363,5.044
		c-1.722,4.863-1.604,11.2-3.177,16.439c-4.014,1.3-4.973-2.75-8.405-2.055c-0.214,0.969-0.716,3.424-0.188,4.67
		c-2.704,1.387-6.669-3.361-8.966,0c0.695,0.9,2.164-0.035,3.361,0.188c0.91,0.646,1.797,1.318,1.868,2.802
		c-0.866,0.69-2.166,0.947-3.176,1.495c-1.008,2.197,0.156,2.551,0.188,4.483c0.049,3.135-3.08,4.838-5.604,5.044
		c-4.06,0.331-7.189-2.028-10.648-3.363c-3.844-1.482-6.943-3.459-9.9-4.296c-0.578,1.547,2.023,1.437,1.868,3.176
		c-4.239,5.681-3.095,17.353,0.373,23.352c-0.096-1.687,0.779,0.333,1.309-0.375c0.776-1.903-1.091-3.611-1.682-5.603
		c-1.589-5.35-1.291-13.938,2.988-15.88c6.306,3.627,19.048,8.635,23.912,0.747c0.609,1.786,1.791,3.341,2.615,5.044
		c0.843,1.744,1.191,3.731,2.429,5.231c3.315-2.304,1.029-8.28,1.868-11.957c2.188,0.688,4.311,0.565,6.352,1.308
		c1.161,0.423,2.091,1.392,3.176,1.868c0.887,0.391,1.963,0.339,2.803,0.748c2.32,1.128,5.305,3.786,6.911,5.604
		c0.584,0.659,1.258,1.192,1.308,2.055c-8.367,1.086-16.692-0.277-16.065-9.341c-2.88,0.646-1.835,5.741-0.935,7.286
		c2.592,4.438,12.167,4.37,18.121,3.549c1.079,1.411,2.564,2.417,2.615,4.857c-3.561,0.784-8.12-0.246-10.835-0.748
		c-1.708-0.314-3.32-0.756-4.857-1.12c-7.744-1.836-15.625-5.015-21.483-8.779c0.106,0.875,1.091,1.286,0.188,2.614
		c0.346,0.837,1.6,0.768,1.868,1.682c-1.852,10.626-4.591,21.509-7.1,31.011c-0.868,3.29-1.785,6.628-3.176,9.34
		c-0.137-5.636,3.494-11.06,2.99-16.438c-2.108,4.747-4.021,11.073-4.858,17c-0.265,1.876-1.12,4.375,0.374,5.791
		c1.847-0.766,2.121-3.037,2.615-4.671c1.728-5.71,3.667-11.286,5.23-17.187c2.113-7.97,3.07-16.392,5.231-24.285
		c2.043,0.821,4.183,1.545,5.79,2.802c-0.471,3.52-1.519,8.066-2.054,12.142c-0.262,0.656-0.692-0.019-1.121,0.375
		c-2.134,6.427-3.99,15.889-2.615,22.792c0.614,3.089,1.175,7.038,3.923,7.473c0.544-3.482,0.593-7.406,0.561-11.21
		c-0.093-10.748,0.729-21.626,2.988-31.197c1.689,0.241,3.077,0.783,4.298,1.495c-1.066,8.048-1.244,17.812,1.494,25.032
		c1.348-4.119-1.024-8.939-0.747-13.825c0.215-3.795,0.801-7.387,1.307-10.647c2.175,0.549,1.335,4.093,1.494,5.79
		c0.267,2.821,0.996,5.857,1.683,8.594c0.705,2.812,1.252,5.755,2.615,7.66c0.759-3.646-0.982-6.893-1.682-10.274
		c-0.687-3.318-1.219-6.816-0.747-10.835c1.176,0.505,2.971,0.392,3.924,1.12c3.157,13.842,7.152,26.849,11.208,39.792
		c-1.445,2.104-1.119,4.929-1.868,7.285c-1.294,4.067-3.32,7.62-4.67,11.208c-2.961,7.867-3.997,16.465-5.231,26.154
		c-0.851,6.681-0.967,15.552-1.681,22.604c-1.338,13.201,0.946,26.864-4.484,37.175c-4.279,4.148-11.055,5.22-17.747,7.287
		c-2.901,0.896-5.875,2.068-8.779,2.801c-5.51,1.388-10.667,1.924-16.439,2.616c-2.773,0.332-5.861,1.588-7.285,1.307
		c-1.086-0.214-1.346-1.282-2.43-2.054c-0.912-0.65-2.819-1.361-3.923-2.616c-1.485-1.689-3.51-4.995-4.483-7.1
		c-1.005-2.173-1.224-4.539-3.363-3.176c-0.998,2.953,1.237,5.676,1.308,8.781c1.735,1.511,3.552,3.911,3.923,6.164
		c-1.49,0.059-2.162-0.702-3.736-0.56c-3.093-2.654-4.111-7.286-5.604-11.21c-0.53-1.392-1.491-2.539-1.868-3.923
		c-0.863-3.164-1.499-5.673-2.429-8.593c-0.765-2.399-1.449-4.835-2.242-7.1c-4.091-11.684-6.945-23.55-11.582-34.933
		c-2.664-6.54-4.516-13.563-6.539-20.363c-5.522-18.565-13.743-35.187-18.121-54.734c-1.342-1.336-0.96-4.396-2.429-5.605
		c-0.262,4.06,1.335,8.011,2.429,11.77c1.733,5.96,3.463,11.876,5.417,17.187c3.449,9.371,6.352,18.782,9.528,28.396
		c1.275,3.863,2.108,7.912,3.362,11.77c1.215,3.737,2.868,7.291,4.11,11.021c1.939,5.826,3.569,11.938,5.791,17.373
		c6.029,14.754,7.989,34.638,15.505,47.076c0.822,1.36,2.233,2.328,2.616,3.923c-1.217,0.466-2.928,0.436-4.297,0.748
		c-6.853-4.897-11.036-13.64-13.637-22.604c-0.486-1.673-0.387-4.324-2.429-5.043c-1.543,1.076,0.89,3.203-0.374,4.671
		c2.451,7.979,5.142,15.791,10.087,21.108c0.764,0.821,2.298,1.375,2.429,2.615c-1.648,0.255-3.543-0.799-5.231-1.121
		c-5.672-5.1-8.671-12.873-11.582-20.736c-0.641-1.186-0.183-4.694-2.615-4.67c-0.845,0.821-0.507,1.626-0.374,2.429
		c0.264,1.59,0.967,3.772,1.682,5.792c0.711,2.01,1.96,4.573,2.988,7.098c0.968,2.377,2.2,5.181,3.363,6.913
		c2.51,3.737,6.703,7.168,11.77,7.472c1.605,0.096,3.963-0.756,6.538-1.121c0.873-0.124,2.013,0.068,2.802-0.187
		c0.899-0.291,1.166-1.262,2.429-1.494c1.291-0.239,2.85,0.494,4.109,0.561c4.635,0.242,10.235-1.347,13.824-2.242
		c5.421-1.352,11.198-1.96,16.627-3.176c5.589-1.251,10.768-3.213,15.505-4.67c2.44-0.751,5.148-1.055,7.287-1.868
		c1.969-0.749,5.213-3.361,6.351-3.176c0.798,0.13,2.279,2.43,3.176,3.923c1.438,2.396,1.82,8.029,4.856,4.856
		c-0.938-3.56-2.434-6.22-4.295-8.966c-0.551-0.811-1.801-1.885-1.869-2.616c-0.094-1.021,0.829-1.541,0.935-1.867
		c0.136-0.426-0.16-0.978,0-1.495c0.136-0.443,0.684-0.824,0.747-1.12c0.272-1.265-0.011-2.997,0.188-4.484
		c0.202-1.529,0.543-2.927,0.747-4.484c5.38-0.268,8.774-1.406,11.955-3.735c3.859-2.828,5.441-8.897,9.341-10.647
		c4.745-2.132,12.412-0.229,15.318-5.045c0.076-2.452,0.844-5.53,0.561-9.341c2.442-0.177,2.949-2.448,5.045-2.429
		c1.144,0.012,2.041,1.325,3.361,1.869c1.673,0.686,3.104,0.345,4.856,0.934c4.544-2.987,1.115-10.329,0.374-14.572
		c4.534,1.664,9.017,4.057,14.385,4.298c1.64,3.902,3.216,7.868,4.296,12.329c1.047,1.999,1.988,4.559,2.803,7.1
		c0.776,2.419,0.821,5.68,3.363,6.538c0.789-0.707,1.323-1.666,1.494-2.99c-0.001-0.808-1.154-0.464-1.12-1.307
		c-1.999-7.253-5.827-14.019-7.847-21.297c-0.176-0.632-0.134-1.431-0.374-2.055c-0.275-0.718-1.007-1.372-1.308-2.055
		c-0.654-1.486-1.079-3.231-1.682-4.856c-4.271-11.529-8.232-23.329-12.329-34.747c-5.772-16.091-11.533-32.474-16.813-48.198
		c-2.784-8.296-6.203-16.594-8.967-25.032c1.278-0.341,1.716-1.523,2.803-2.055c1.038,0.332,1.622,1.117,2.615,1.495
		c0.428,4.321,3.018,7.43,4.296,10.648c8.405,21.143,15.772,43.509,23.539,64.823c2.892,7.938,5.52,15.894,8.406,23.726
		c2.278,6.179,4.933,12.025,6.539,18.494c2.545,4.746,4.71,10.773,6.351,16.252c0.522,1.744,1.036,4.029,2.616,5.045
		c0.39,0.316,1.127-0.609,1.681-0.747c-2.269-6.637-4.767-13.044-7.098-19.615c3.523-0.049,7.237-0.797,10.647-0.747
		c2.655-3.488,2.983-8.715,3.736-13.639C315.147,308.901,315.049,297.656,314.022,287.79z M106.474,394.084
		c-1.122-3.819-1.392-8.145-1.682-11.955C107.585,384.034,108.594,390.56,106.474,394.084z M109.65,396.701
		c1.365-1.25,3.151-2.078,3.923-3.923C113.446,394.519,111.85,396.408,109.65,396.701z M108.716,354.293
		c-0.883-6.572-3.066-12.548-4.109-19.428c-0.383-2.521-1.165-5.094-1.682-7.659c-3.548-17.643-6.923-36.923-10.274-54.362
		c1.648,6.437,3.296,12.98,4.857,19.802c0.502,2.194,0.721,4.462,1.308,6.539c0.846,2.997,2.124,5.811,2.802,8.967
		c0.267,1.241,0.104,2.622,0.374,3.922c0.298,1.44,1.164,2.843,1.495,4.298c1.715,7.548,3.919,15.677,5.604,23.726
		c0.538,2.564,1.477,5.042,1.869,7.659c0.4,2.683,0.951,5.439,1.681,7.846c0.366,1.202,1.144,2.218,1.495,3.362
		c0.742,2.422,0.915,5.143,1.494,7.659c1.655,7.188,2.741,16.233-0.747,23.352c-0.914-4.189-3.575-6.336-6.539-8.967
		c-2.481-2.203-6.649-5.22-5.978-10.461c0.375-2.933,3.696-5.101,4.857-7.473C108.208,361.058,109.117,357.277,108.716,354.293z
		 M83.87,371.855c-1.518-2.569-2.359-7.36-2.429-10.648c-0.266-12.536-1.569-27.826-3.55-40.726
		c-0.605-3.946-0.041-9.075-2.054-11.396c0.548-1.256,1.677-1.934,2.242-3.176c0.159-0.035,0.176,0.074,0.187,0.188
		c0.094,1.646,0.683,3.595,0.374,5.045c1.531,3.084,1.026,8.53,1.682,12.889c0.481,3.2,0.897,7.531,1.307,11.77
		c0.358,3.69,1.216,6.604,1.308,11.208c0.182,9.056,1.319,18.13,2.989,26.528C84.889,373.759,84.281,372.549,83.87,371.855z
		 M87.42,362.701c-0.943-5.473-1.213-9.915-1.682-15.692C86.611,351.926,87.132,357.197,87.42,362.701z M85.364,342.524
		c-0.083-0.304-0.048-1.143-0.187-2.054C85.538,340.155,85.679,343.68,85.364,342.524z M85.178,339.349
		c-0.569-1.647-0.461-2.919-0.561-4.857C85.042,335.128,84.964,337.879,85.178,339.349z M84.057,327.394
		c-0.332,0.497-0.136-1.096-0.187-1.495C84.202,325.4,84.006,326.994,84.057,327.394z M82.562,314.13
		c0.906,2.652,0.896,6.979,1.308,10.647C82.498,321.754,83.206,317.7,82.562,314.13z M81.815,301.239
		c0.173,3.667,0.615,5.952,0.747,9.528c-0.253-0.058-0.154-0.467-0.186-0.747c-0.496-2.219-0.384-4.004-0.748-6.165
		c-0.156-0.528-0.733-0.636-1.121-0.935c0.222-0.712,0.684-1.184,0.934-1.867C81.659,301.023,81.774,301.093,81.815,301.239z
		 M202.309,274.526c-2.155-6.357-1.158-14.144,0-20.736C202.538,261.776,201.798,266.771,202.309,274.526z M194.462,67.725
		c1.61,1.06,3.1,1.443,4.11,2.989c9.098,3.778,15.228,11.573,19.241,20.363c4.05,8.867,8.477,18.391,11.583,28.021
		c-1.355-1.258-1.544-2.539-2.99-3.736c-4.847-4.018-15.52-1.042-13.449,5.791c1.17,0.005,1.436-2.228,2.429-0.747
		c3.095-4.997,11.784-2.436,13.264,2.429c1.182-0.131,1.092-1.419,1.12-2.242c4.954,14.289,9.835,28.649,16.44,41.286
		c-7.189-0.328-13.652,0.355-16.44-4.67c-7.982-3.217-19.463-2.745-30.823-4.11c-4.258-0.512-7.743-0.753-10.648-2.616
		c-1.196-0.766-2.265-3.402-4.109-3.176c-2.7,0.331-0.512,4.126,0.747,4.484c-10.821,3.996-22.575,7.612-33.813,11.582
		c-5.515,1.948-12.409,4.523-19.802,4.11c-3.021-0.169-4.901-1.343-5.604-4.297c7.943,0.877,16.157-0.658,23.351-2.615
		c1.735-0.473,3.18-1.559,4.671-2.429c1.611-0.939,3.62-1.845,3.549-3.736c-1.955-0.678-3.442,1.611-5.417,2.429
		c-1.222,0.506-2.597,0.346-3.549,1.307c-5.418,0.342-10.185,2.276-15.878,2.616c-0.243-0.596,1.001-1.841,1.307-2.802
		c0.108-0.337-0.148-0.991,0-1.494c0.099-0.333,0.522-0.463,0.561-0.748c0.456-3.333-0.264-7.627-0.561-11.022
		c9.395,1.121,19.11-2.696,26.341-6.912c6.043-3.524,11.738-7.713,16.814-11.396c2.921-2.12,5.416-5.34,7.846-8.22
		c0.672-0.798,2.21-1.732,1.494-2.989c-1.384-0.08-2.164,1.459-2.989,2.242c-4.583,4.344-9.882,8.627-15.691,12.143
		c-3.423,2.07-6.152,4.294-9.715,6.351c-6.099,3.521-19.299,9.342-25.967,4.11c-0.79,0.042-1.207-0.288-1.869-0.374
		c-1.575-1.506-3.882-2.527-5.417-4.296c-6.776-7.81-10.639-22.277-9.153-34.934c0.354-3.021,1.732-5.663,1.868-8.593
		c3.684-9.249,10.236-17.047,18.869-22.044c1.243-0.719,2.488-2.021,3.922-2.615c0.608-0.252,1.269-0.129,1.868-0.374
		c0.863-0.353,1.529-1.092,2.428-1.494c2.768-1.239,6.905-2.223,10.649-2.989c3.167-0.647,7.102-0.936,10.088-0.934
		c3.138,0.002,6.677,0.056,9.714,0.374c1.59,0.166,3.283,0.291,4.67,0.56c1.36,0.265,2.719,1.056,4.109,1.308
		C187.812,64.374,191.281,65.63,194.462,67.725z M232.946,163.746c0.78-0.158,0.882,0.364,1.494,0.374
		c0.152,1.964,1.387,2.848,1.494,4.857c-1.261-0.136-2.315,0.491-3.362,0C232.515,166.794,233.837,165.817,232.946,163.746z
		 M211.836,157.021c0.158-0.035,0.176,0.073,0.188,0.187c3.525,0.36,7.662,0.339,11.022,0.934c1.876,0.332,4.152,0.548,5.042,2.055
		c-3.53,4.252-8.55-0.835-13.449,0c-2.329,0.398-3.293,2.747-6.166,2.429c-0.325-0.416,0.877-1.106,1.495-1.681
		c0.705-0.656,1.351-1.381,1.868-1.869C211.835,158.118,212.11,157.85,211.836,157.021z M78.079,223.338
		c1.968-0.147,3.236-1.042,5.23-1.308c0.177-0.022,0.863,0.146,0.748,0.188c0.685-0.248,1.1-1.191,1.682-1.494
		c0.502-0.263,1.18-0.137,1.682-0.374c1.206-0.569,1.958-1.657,3.176-2.241c-3.306,2.983-6.911,7.287-12.33,8.78
		C77.921,225.988,78.139,224.525,78.079,223.338z M87.606,224.647c1.781-1.512,3.349-3.354,5.418-4.857
		c0.005-0.182,0.229-0.146,0.374-0.187c-4.954,4.874-11.694,12.566-19.615,13.638c-1.928,0.26-5.103,2.386-6.166,0.56
		C75.277,231.259,82.175,229.258,87.606,224.647z M94.145,229.691c-0.986,1.022-1.653,2.426-2.616,3.362
		c-1.8,1.753-4.265,3.273-6.538,4.67c-6.756,4.153-14.379,7.65-23.351,9.716c-0.323-0.923-0.451-2.042-0.374-3.363
		c3.66-1.173,7.117-1.77,10.648-3.176c1.995-0.795,4.181-1.408,5.792-2.242c1.172-0.606,2.205-2.162,3.922-1.868
		c3.083-3.401,7.396-5.75,10.648-9.153c1.577-1.649,3.063-3.557,4.484-5.418c1.333-1.748,3.588-3.41,3.362-5.978
		c-1.537-0.264-1.639,1.57-2.055,2.241c-1.528,2.463-3.848,4.304-5.978,6.538c-2.473,2.595-5.419,5.652-8.781,8.033
		c-2.871,2.035-7.586,3.983-11.769,5.417c-1.703,0.585-4.332,1.167-6.726,1.682c-3.473,0.749-7.771,0.688-6.351,5.23
		c-0.681,0.629-1.758,0.858-3.176,0.747c-0.489-2.493,0.181-4.059,0-6.725c7.155-1.483,14.837-1.212,20.923-4.109
		c4.183-1.992,8.177-5.153,11.956-8.033c3.823-2.913,7.104-6.891,9.34-10.461c-1.011-1.359-0.678-1.245-0.187-2.989
		c-0.271-0.81-0.418,0.197-1.122,0c-0.057-6.635-2.825-13.014-4.856-19.242c-3.436-10.531-5.679-22.983-8.22-35.121
		c-1.638-7.824-3.637-15.586-5.044-23.538c-1.713-9.677-3.661-20.691-4.484-31.011c-0.351-4.402-1.312-9.085-0.747-14.011
		c0.346-3.017,0.027-5.911,0.187-8.593c0.289-4.85,0.837-9.619,2.616-14.945c3.843-11.507,9.491-20.939,17.374-28.769
		c2.062-2.048,3.913-4.504,5.978-6.165c3.66-2.944,8.233-4.823,12.517-7.099c4.352-2.312,8.969-4.14,13.637-5.979
		c4.081,0.299,7.524-1.926,11.583-2.988c2.876-0.754,6.486-1.047,9.714-1.308c2.928-0.237,5.759-0.439,8.593-0.748
		c2.292-0.249,4.427,0.217,6.352,0.374c2.451,0.199,5.023-0.147,7.285,0.187c3.849,0.568,7.805,1.721,11.582,2.803
		c3.856,1.104,7.777,2.022,11.209,3.362c3.395,1.324,6.518,3.133,9.527,4.857c3.121,1.787,6.33,3.585,8.594,5.978
		c-9.193,4.659-16.003,11.468-22.044,19.429c-2.062,2.716-3.007,5.938-5.044,8.78c-14.515-2.762-27.629-1.045-39.417,2.615
		c-3.372,1.047-5.787,3.077-8.78,4.857c-8.128,4.835-15.167,12.698-19.428,21.857c-4.185,8.995-4.354,18.642-1.869,30.077
		c-1.809,0.092-4.347,0.486-6.538,0.747c-1.767,0.21-5.416-0.084-6.165,0.934c-0.647,0.879-0.193,5.069-0.187,6.726
		c0.045,12.414-0.009,22.311-0.374,33.252c-0.168,5.031,0.983,9.928,0.934,14.945c-0.025,2.525-0.584,5.192,0.934,7.099
		c1.292-0.031,0.671-1.128,0.934-1.869c0.238-0.668,0.804-1.285,0.935-2.055c0.323-1.919-0.302-3.714-0.375-5.604
		c-0.62-16.248-0.065-34.891,0.561-50.439c3.28-0.519,6.611-0.986,10.275-1.121c0.183,1.544,0.865,2.605,1.121,4.483
		c-2.701,0.586-5.131,0.324-7.66,1.121c0.757,5.22-0.513,10.281-0.561,15.506c-0.2,21.921-0.315,45.818-0.747,67.999
		c-0.645,0.843-1.943,0.895-2.429,1.682c-0.904,1.466-1.007,4.591-1.681,6.165C100.318,222.942,97.14,226.585,94.145,229.691z
		 M120.298,214.186c-1.172,1.268-2.547,1.782-4.297,2.616c-3.963,1.886-7.829,4.219-12.89,5.417
		c0.792-2.696,2.355-4.619,2.989-7.472c1.073-0.846,2.467-0.584,2.989-1.682c0.455-0.955-0.15-2.082-0.186-3.176
		c-0.356-10.701,0.806-21.756,0.186-32.505c-0.174-3.029,0.361-6.41,0.374-9.527c0.005-1.038-0.407-2.019-0.374-2.989
		c0.402-11.771,0.759-23.578,1.495-35.121c1.802-0.377,3.952-0.407,5.791-0.747c1.446,3.215,3.663,5.462,5.979,8.033
		c0.709,0.788,1.279,1.758,2.055,2.429c2.021,1.746,4.711,2.592,6.726,4.483c-0.438,4.49,0.178,9.917-1.308,13.264
		c-0.555,1.25-2.036,2.824-3.362,2.988c-1.679,0.209-3.967-1.335-4.484,1.122c1.372,3.298,2.47,6.871,5.792,8.22
		c-1.418,1.961-2.303,4.665-1.308,7.472c0.807,2.279,3.906,2.187,5.044,3.923C128.208,191.216,127.043,206.887,120.298,214.186z
		 M160.65,173.46c-9.321,1.013-19.507,0.146-26.528,3.923c-1.042-0.268-1.309-0.01-2.241,0.187
		c-2.673-1.041-2.664-5.246-0.747-7.098c8.711-0.444,17.025-3.085,23.912-5.417c4.485-1.52,8.689-3.721,13.264-4.483
		c2.593-1.579,5.848-2.496,9.341-3.176c0.37,0.598-1.04,1.423-1.309,2.802c-0.19,0.977,0.139,1.994,0,3.176
		c-2.016-1.823-6.625-1.831-9.154-2.055C163.024,163.168,158.987,167.589,160.65,173.46z M206.419,167.669
		c-1.792-0.64-2.513-1.839-4.11-2.241c-6.875-1.732-11.139,3.415-15.318,5.417c-1.803,0.863-3.988,0.143-6.726,0.56
		c0.003,0.994,0.866,1.126,1.309,1.681c3.957,0.369,6.703,0.529,9.526-1.308c2.833-1.841,4.936-4.116,8.407-4.296
		c3.537-0.184,5.043,1.713,8.219,2.429c-2.984,1.062-5.407-0.981-8.779-0.374c-2.272,0.409-3.587,2.409-5.604,3.736
		c-1.922,1.262-5.425,2.212-8.222,2.428c-1.199,0.092-3.29,0.111-4.67-0.374c-2.268-0.797-4.536-6.33-8.594-5.23
		c-3.159,0.855-3.482,5.85-0.933,7.846c-10.015,0.914-10.782-15.251,0.373-13.825c3.567,0.456,5.979,3.349,8.594,5.231
		c1.247,0.257,2.994,1.085,3.735-0.187c-0.528-2.717-4.875-2.913-5.604-5.605c-1.045-3.858,1.769-5.142,4.483-6.165
		c0.261-1.009-0.878-0.616-0.934-1.307c1.891-0.316,4.265-2.057,6.164-2.242c1.912-0.187,4.648,1.389,7.286,1.868
		c4.614,0.838,9.87,0.334,14.759,1.308c0.668,1.827-1.218,3.575-2.616,4.11c-3.753,1.436-11.45-1.972-15.132,0.747
		c-1.195,1.476-4.564,2.583-3.362,5.231c3.325-2.095,4.991-3.942,10.46-3.55c5.774,0.414,11.419,3.081,15.32-0.934
		c5.952-0.551,10.991,3.492,14.944-0.374c0,0.997,0,1.993,0,2.989c-0.024,0.875-0.424-0.383-1.121,0
		c-0.988,0.971-1.566,2.681-2.988,2.989c-3.271,0.709-4.921-3.814-8.407-3.922c-1.078-0.034-2.791,0.5-3.737,0.934
		C210.992,166.229,209.985,168.944,206.419,167.669z M212.957,167.856c1.621-1.616,3.833-2.012,5.791-1.308
		c2.195,0.789,2.917,3.181,5.417,3.55c1.83,0.269,3.602-0.848,4.67-2.803c0.68,0.936-0.553,1.558-0.56,2.429
		C222.457,173.249,218.517,166.372,212.957,167.856z M206.792,227.262c-1.032-2.393-2.886-3.965-3.362-6.912
		c1.234,0.197,2.369,0.495,3.549,0.747C206.833,223.859,206.751,224.65,206.792,227.262z M238.923,355.602
		c-3.265-7-6.45-15.102-8.405-23.538c-0.337-1.455-1.046-2.808-1.308-4.11c-1.308-6.486,0.396-14.051-3.923-17.934
		c-0.896,1.376,0.202,2.679,0.372,3.735c0.821,5.099,0.169,10.206,1.122,14.758c0.717,3.43,2.451,6.825,3.549,10.463
		c2.074,6.866,3.102,13.518,6.912,18.493c-3.241,5.747-8.132,11.767-16.439,11.21c-0.119-8.677,0.877-17.7,1.496-26.902
		c0.396-5.9-0.088-12,0.56-17.746c0.986-8.759,2.336-17.032,4.857-24.286c4.56,17.157,8.898,36.026,16.439,50.813
		c1.178,0.69,1.949,1.787,3.361,2.241C245.085,354.167,241.414,354.293,238.923,355.602z M249.945,351.305
		c-1.312-0.68-2.335-1.65-3.549-2.429c-4.957-7.994-6.979-18.927-10.462-28.396c0.595-0.22,0.422,0.625,0.561,0.934
		c3.403,7.582,6.826,15.93,11.021,22.605c1.668,1.895,5.139,4.468,7.474,1.494C256.058,349.493,253.378,351.217,249.945,351.305z
		 M249.198,342.338c1.201-0.06,3.083,1.101,4.484,0.934C252.895,345.38,250.003,343.141,249.198,342.338z M255.55,339.536
		c-0.649,0.098-0.371,1.123-1.307,0.935c-5.155-0.407-8.654-4.886-10.836-8.967c-1.219-2.282-2.402-5.47-3.362-8.407
		c-0.94-2.874-2.254-5.695-3.176-8.594c-1.995-6.271-3.162-12.9-4.67-18.681c-0.361-1.386-1.126-2.478-1.121-3.548
		c0.011-2.482,2.2-4.597,2.241-6.913c0.158-0.034,0.176,0.072,0.187,0.188c4.652,14.402,10.233,27.875,16.067,41.099
		c2.306,4.854,6.614,7.706,8.593,12.889C257.359,340.39,256.341,340.331,255.55,339.536z M269.561,340.097
		c-1.46-0.298-2.712-1.108-3.735-2.056c-6.424-5.943-11.93-15.44-16.627-23.911c-1.938-3.497-3.345-6.914-4.856-10.462
		c-0.914-2.145-2.074-4.134-2.803-6.353c-0.932-2.836-1.772-6.018-3.176-8.406c0.037-1.469-0.465-2.398-0.935-3.361
		c-0.052-0.335,0.177-0.385,0.188-0.188c4.273,12.041,9.229,23.4,15.692,33.253c0.215,0.22,0.212,0.66,0.188,1.12
		c3.911,2.637,4.952,9.105,10.835,9.154c0.529,1.09,0.186,3.051,1.12,3.736c0.651,0.368,1.277-0.646,1.681-1.121
		c-0.479-2.26-2.255-3.225-2.429-5.791c1.059,0.188,1.763,0.728,2.804,0.935c0.859,1.669,1.646,4.14,2.241,6.537
		C270.291,335.371,271.304,338.431,269.561,340.097z M263.022,270.79c0.481,0.51,1.052,0.855,1.309,1.308
		c0.985,1.741,1.427,4.552,2.241,6.913c2.239,6.495,4.849,13.32,7.099,19.987c3.66,10.843,7.734,21.092,10.647,30.45
		c-6.018-0.79-11.026-3.222-15.878-5.417c-2.415-1.093-5.348-1.451-6.912-3.363c-1.791,0.592-2.929-0.876-4.484-1.12
		c-11.303-14.815-16.18-35.045-23.538-53.989c-2.505-6.45-3.877-13.368-5.79-19.988c-0.332-1.146-1.166-2.091-1.31-3.363
		c0-0.187,0-0.372,0-0.56c1.999,0.348,5.366,0,7.847,0.373c3.251,5.966,6.756,11.678,11.022,16.626
		c3.722,2.998,8.176,5.388,12.517,8.033C260.059,268.06,261.34,269.006,263.022,270.79z M261.902,265.932
		c-4.916-2.619-9.499-5.569-14.011-8.593c-2.562-2.667-4.934-5.638-7.1-9.528c-1.487-2.672-3.575-5.326-4.482-7.846
		c-0.52-1.439-0.628-2.943-1.122-4.297c-2.158-5.923-7.147-8.503-11.395-12.703c-4.233-2.555-9.822-3.753-14.386-5.978
		c-1.584,0.028-2.788-0.325-4.482-0.187c-0.473,0.003,0.424-1.632,0.372-2.429c1.271-0.411,2.453-0.911,3.551-1.494
		c0.019-0.736,0.397-2.083,0.187-2.429c2.011,1.15,8.08,2.638,8.779-1.308c0.222-1.249-0.031-2.32,0.188-3.736
		c0.29-1.868,1.008-4.364,1.494-6.726c0.529-2.573,0.704-5.284,1.494-6.725c0.476-0.866,1.874-1.455,2.429-2.429
		c1.25-2.193,1.466-5.397,2.056-8.033c0.637-2.845,1.041-5.684,1.682-8.219c1.089-0.313,1.332,0.57,1.867,1.494
		c2.076,3.588,3.931,10.641,5.978,15.318c-0.481,5.849-4.683,15.523,2.989,16.253c0.621,0.437,0.5,1.618,1.121,2.055
		c-1.006,5.768,1.098,11.541,6.539,11.396C251.074,235.164,256.835,250.201,261.902,265.932z M233.881,178.318
		c1.679,0.443,4.011,0.788,5.791,0.56c0.641,1.725,1.354,3.377,1.867,5.231c-1.981,0.322-3.614,0.994-4.857,2.055
		C235.339,183.958,234.515,181.233,233.881,178.318z M262.088,231.746c1.751,0.803,2.739,2.368,4.671,2.989
		c4.149,4.902,4.223,16.827,5.044,24.286C268.826,249.667,265.075,241.088,262.088,231.746z M307.11,329.448
		c-2.002,1.478-6.286,1.485-9.528,1.121c-6.762-18.207-12.948-36.993-19.987-54.922c-0.191-1.001,0.689-0.931,0.56-1.868
		c-4.974-10.346-2.673-27.964-7.659-38.297c-0.36-0.659,0.088-0.836,0.187-1.494c-1.376,0.129-2.021-1.259-3.362-2.242
		c-4.857-3.563-9.634-8.266-11.582-14.944c-0.128-0.752,0.178-1.066,0.187-1.682c-0.352-2.139-2.892-2.091-4.109-3.363
		c0.008-1.481,1.067-2.255,0-3.363c-2.069,0.048-2.675,1.56-2.803,3.549c-1.528,1.625-4.529,2.211-4.297,5.044
		c-2.884-0.541-2.821-4.027-2.988-7.286c1.86-3.273,6.968-4.526,9.341-7.846c0.599-0.84,0.553-1.794,1.307-2.242
		c1.397-0.828,3.481-0.553,5.044-0.188c0.183-1.091-1.435-1.901-2.241-2.615c-4.664-0.62-6.076,3.135-8.22,5.604
		c-2.018,0.973-4.091,2.882-5.791,3.55c-0.493-3.286,0.004-6.294,1.494-8.407c3.415-1.055,8.118-1.567,10.836-3.549
		c0.902-0.66,3.551-4.555,0.934-4.857c-1.562-0.18-1.465,2.013-2.429,2.803c-2.691,2.204-7.607,1.259-11.021,3.549
		c-2.766,1.855-3.039,5.204-2.804,9.154c-4.235-2.516-0.583-12.107,0.188-16.626c2.474-2.671,10.125-1.245,14.945-2.242
		c1.425-0.295,4.915-1.595,4.67-2.988c-0.273-1.554-2.499-0.849-3.735-0.374c-2.661-1.138-3.614-3.983-5.979-5.418
		c-1.682-0.161-2.542-1.062-4.297-1.308c-2.524-0.354-5.102,0.957-7.286,0.747c-2.878-0.275-4.87-2.21-5.604-5.044
		c3.328,0.729,8.086,0.008,11.208-0.934c1.968-0.594,4.221-0.014,6.726,0.374c1.588,0.246,3.317,0.179,4.297,0.56
		c1.498,0.583,2.812,2.86,4.483,4.483c2.607,2.533,4.896,4.479,8.78,5.417c3.145,2.76,4.178,6.975,6.352,10.462
		c1.062,1.704,2.309,3.249,3.362,5.044c2.313,3.938,5.276,7.485,7.473,11.582c3.789,7.07,4.938,14.959,8.779,22.979
		c1.119,2.335,2.487,4.678,3.55,7.098c1.11,2.528,1.663,5.266,2.803,7.847c1.062,2.407,2.268,4.873,3.176,7.473
		c1.623,4.65,2.341,9.662,3.923,14.385c1.492,7.243,2.896,15.041,3.55,23.352C310.579,304.726,308.621,317.872,307.11,329.448z
		 M243.033,178.318c3.356,0.69,6.311,1.784,6.912,5.23c-1.983,0.081-3.54,0.12-5.23,0.187
		C244.624,181.459,242.86,180.857,243.033,178.318z"/>
	<path fill-rule="evenodd" clip-rule="evenodd" d="M204.47,203.413c0.726-0.483,0.096-0.021,0.707-0.48
		c0.766-0.574,0.464-0.885,1.265-0.885c0.83,0,1.013,1.223,2.15,1.223c0.726,0,2.683-0.548,0.507-0.548
		c-2.177,0-1.055-1.771-2.404-1.729c-1.604,0.05-1.052,0.392-1.771,1.223c-0.719,0.831-1.198,0.932-1.264,1.56
		c-0.067,0.627,0.327,1.736,1.188,1.545C205.23,204.365,203.745,203.896,204.47,203.413z"/>
	<path fill-rule="evenodd" clip-rule="evenodd" d="M208.169,193.186c0.859-0.123,1.433-1.31,3.191-2.046
		c0.728-0.305,1.477-0.244,2.497-0.819c0.518-0.291,1.761,0,2.252-0.491c-0.532-1.351-0.696-3.97-3.111-5.566
		c-2.318-1.533-4.71-1.1-6.875-0.778c-1.116,0.166-3.392-1.153-3.931-0.614c-0.495,0.496,0.044,1.386,0.662,1.767
		c2.479,1.528,3.771,4.012,4.495,4.496C208.075,189.618,207.714,192.608,208.169,193.186z"/>
	<path d="M162.949,389.629c-1.058-1.08-2.209-2.48-3.047-3.652c-0.844-1.167-1.406-2.076-1.409-2.072l-0.662-0.912l-0.732-1.069
		l-0.216-0.332c-0.474-0.726-0.935-1.479-1.387-2.253c-0.904-1.551-1.765-3.194-2.591-4.914c-1.652-3.442-3.163-7.19-4.561-11.172
		c-2.786-7.965-5.161-16.861-7.07-26.382c-0.471-2.379-0.918-4.804-1.282-7.243c-0.087-0.603-0.177-1.233-0.226-1.783l-0.012-0.169
		c0-0.066-0.013-0.287-0.04-0.422c-0.055-0.299-0.104-0.449-0.16-0.637c-0.106-0.353-0.218-0.665-0.333-0.979
		c-0.459-1.24-0.954-2.422-1.458-3.616c-2.026-4.755-4.199-9.532-6.408-14.397c-4.415-9.723-9.094-19.731-13.621-29.964
		c-0.56-1.278-1.116-2.562-1.643-3.845c-0.261-0.638-0.522-1.288-0.731-1.892c-0.05-0.146-0.096-0.296-0.123-0.396l0-0.002
		c0.309-0.074-0.342-0.176-0.023-0.218l-0.035-0.215c-0.097-0.479-0.205-0.814-0.315-1.183c-0.902-2.792-1.934-5.404-2.958-8.075
		c-2.064-5.311-4.202-10.605-6.343-15.9l-2.135-5.29c0.108,0.074,0.216,0.148,0.325,0.222c4.775,3.209,9.618,6.165,14.436,9.104
		c9.644,5.851,19.374,10.018,28.683,15.418l3.327,3.458l0.143,0.082l0.104,0.081l0.392,0.307l0.78,0.611l2.26,0.908l6.136,4.543
		c2.03,1.619,3.93,3.176,5.973,4.718c2.054,1.536,3.498,3.764,5.747,5.077c0.566,0.325,1.151,0.636,1.787,0.916
		c0.321,0.138,0.654,0.269,1.022,0.382c0.183,0.056,0.378,0.105,0.585,0.146c0.185,0.038,0.561,0.088,0.842,0.078
		c0.602-0.01,1.193-0.19,1.645-0.574c0.447-0.382,0.751-0.925,0.916-1.506c0.287-1.132,0.052-1.95-0.192-2.687
		c-0.543-1.429-1.341-2.47-2.148-3.457c-0.817-0.974-1.855-1.267-2.756-2.09c-0.452-0.412-1.361-1.168-1.849-1.557l-0.054-0.748
		l-0.648-0.533c-0.873-0.731-2.876-0.921-3.773-1.638c-0.449-0.359,0.219-1.266-0.239-1.612l-0.179-0.134l-0.203-0.151
		c-1.077-0.798-2.038-1.431-2.777-1.848c-0.73-0.421-1.241-0.631-1.287-0.655c-0.076-0.021-0.255-0.002-0.293,0.007
		c-1.082,0.255-1.332,0.846-1.332,1.316c0.002,0.488,1.378,0.639,1.542,0.936c0.044,0.094-0.054-0.025,0,0
		c0.056,0.011,0.376,1.047,2.374,2.546l1.034,0.784c0.856,0.667,1.955,1.006,2.818,1.73l1.081,1.464
		c0.517,0.417,0.887,0.682,1.312,1.053c1.634,1.419,3.899,3.029,4.904,4.78c0.241,0.429-0.19,0.91-0.133,1.251
		c0.031,0.172,0.029,0.308,0.016,0.404v0.002l-0.219-0.046c-0.412-0.108-1.119,0.773-1.609,0.529
		c-1.996-1.025-4.927-3.706-6.908-5.157c-1.985-1.469-2.838-2.874-4.833-4.459l-6.042-4.839l-3.086-2.447l-0.781-0.611l-0.248-0.193
		l-0.209-0.132l-0.118-0.067l-0.428-0.247l-1.717-0.99c-9.17-5.309-18.286-9.667-27.78-15.397
		c-4.74-2.871-9.833-6.955-14.501-10.001c-1.163-0.764-2.321-1.538-3.441-2.333c-0.559-0.396-1.788,0.19-2.295-0.218
		c-0.248-0.2,0.176-1.405,0.005-1.578l-0.097-0.105l-0.002-0.001l-0.047-0.09c1.751,0.773-2.441-1.977-2.746,0.967
		c0.047,0.187,0.058,0.201,0.079,0.271l0.053,0.15c1.036,2.719,2.096,5.267,3.151,7.895c2.111,5.219,4.561,8.111,6.609,13.314
		c1.022,2.602,1.697,7.521,2.644,10.113l0.68,1.936l0.303,0.946l0.123,0.442l0.042,0.184l0.011,0.059
		c-0.193,0.03,0.374-0.039,0.697-0.058c-1.388,0.186-0.389,0.062-0.676,0.282c0.024,0.176,0.038,0.206,0.054,0.284
		c0.031,0.13,0.062,0.236,0.093,0.338l0.187,0.558l0.386,1.018l0.803,1.952c4.416,10.214,9.556,18.538,13.911,28.124
		c2.184,4.784,3.815,10.992,5.847,15.611c1.005,2.304,2.019,4.61,2.859,6.844c0.101,0.274,0.198,0.553,0.275,0.801
		c0.038,0.122,0.07,0.247,0.083,0.306l0.001,0.005l0.015,0.279c0.061,0.703,0.149,1.297,0.237,1.923
		c0.18,1.23,0.383,2.437,0.595,3.635c1.728,9.558,3.958,18.454,6.532,26.534c2.592,8.067,5.554,15.326,9.142,21.338l0.683,1.11
		l0.536,0.83l0.103,0.157l0.198,0.294l0.354,0.516l0.69,0.969c0-0.002,1.331,1.642,2.85,3.065c1.498,1.448,3.211,2.589,3.091,2.447
		c1.45,0.923,2.818,1.349,3.188,1.223c0.188-0.062,0.135-0.254-0.219-0.616C164.504,391.072,163.86,390.524,162.949,389.629z
		 M114.197,271.6c0.404-0.01,0.668-0.026,0.843-0.043C114.778,271.623,114.37,271.646,114.197,271.6z"/>
	<path d="M183.099,388.373c-0.372-0.325-1.01-0.83-1.825-1.774c-1.902-2.261-3.696-6.204-3.701-6.193
		c0.003-0.001-0.451-0.772-1.125-2.084l-0.689-1.386c-0.341-0.708-0.687-1.452-1.035-2.23c-0.694-1.556-1.394-3.246-2.092-5.048
		c-1.398-3.605-2.786-7.657-4.125-11.978c-2.672-8.645-5.171-18.368-7.167-27.811c-0.495-2.36-0.959-4.704-1.349-6.999
		c-0.166-0.998-0.333-2.043-0.417-2.947c0.194-0.157,0.345-0.3,0.504-0.444c0.456-0.433,1.098-0.718,1.258-1.275
		c0.91-3.192,5.802-6.656,8.262-9.617l3.06-3.737l0.052-0.251c-0.012-1.977-1.417-1.917-2.136-1.681
		c-0.112,0.027-0.129,0.049-0.174,0.102l-3.042,3.72c-2.406,2.9-5.08,6.15-8.027,9.358c-0.369,0.396-0.745,0.788-1.116,1.146
		c-0.182,0.176-0.376,0.354-0.52,0.466l-0.079,0.06l0.01,0.021c0.071,0.106,0.138,0.218,0.199,0.332
		c0.126,0.263,0.216,0.371,0.272,0.568c0.026,0.111,0.055,0.12,0.061,0.195c-0.255-0.511,0.584,1.269-0.581-1.12l-0.054,0.026
		c-0.219,0.104-0.458,0.3-0.61,0.532c-0.181,0.302-0.186,0.405-0.189,0.401c-0.025,0.082-0.051,0.2-0.06,0.257
		c-0.029,0.21-0.029,0.33-0.03,0.438c0.017,0.773,0.103,1.3,0.179,1.91c0.082,0.59,0.174,1.171,0.271,1.754
		c0.388,2.324,0.849,4.657,1.338,7.008c2.184,10.395,2.649,8.387,4.99,16.056c2.622,8.599,7.54,27.715,10.193,32.973l0.579,1.126
		l0.364,0.681l0.318,0.574c0.002-0.002,1.109,1.781,2.428,3.396c1.281,1.645,2.928,2.98,2.821,2.82c0.7,0.53,1.428,0.92,2.033,1.116
		c0.604,0.203,1.069,0.208,1.244,0.124C183.573,388.864,183.476,388.692,183.099,388.373z M158.168,319.164l-0.006-0.004
		C158.164,319.033,158.166,318.896,158.168,319.164z"/>
	<path d="M168.999,385.006c-0.413-0.207-1.027-0.636-1.739-1.628c-1.631-2.399-2.986-6.573-3.007-6.549
		c0.002,0-0.371-0.82-0.923-2.195l-0.388-0.991l-0.543-1.444c-0.367-1.004-0.747-2.085-1.13-3.233
		c-0.769-2.296-2.718-7.061-3.5-9.781c-3.139-10.891-4.942-22.145-6.809-31.526l-0.916-4.714l-0.158-0.2
		c-1.507-1.265-2.378-0.174-2.663,0.54c-0.052,0.104-0.047,0.13-0.035,0.199l0.924,4.744c1.857,9.321,4.785,22.603,7.881,33.431
		c1.537,5.415,3.127,10.213,4.479,13.624l0.424,1.057l0.296,0.709l0.258,0.6c0.003-0.001,0.921,1.87,2.045,3.621
		c0.559,0.876,1.175,1.717,1.686,2.298c0.503,0.584,0.886,0.907,0.83,0.829c0.664,0.604,1.425,1.066,2.114,1.224
		c0.695,0.165,1.208-0.009,1.336-0.155C169.598,385.3,169.416,385.208,168.999,385.006z"/>
	<path d="M196.143,379.241c-0.167-0.823-0.47-1.846-0.816-2.816c-0.697-1.942-1.506-3.719-1.472-3.552
		c-0.717-1.488-1.344-2.63-1.634-2.825c-0.155-0.112-0.307,0.032-0.323,0.565c-0.017,0.528,0.116,1.404,0.406,2.692
		c0.307,1.533,0.726,3.351,0.936,4.76c0.23,1.421,0.204,2.36,0.201,2.353c-0.001-0.001,0.018,0.199,0.013,0.52
		c0.004,0.298-0.094,0.789-0.182,0.867l-0.047,0.036l-0.022,0.008c-0.081-0.068-0.227-0.169-0.353-0.325
		c-0.208-0.225-0.429-0.511-0.647-0.823c-0.878-1.272-1.726-2.928-2.551-4.69c-3.279-7.124-7.405-17.298-9.503-23.637l-0.45-3.548
		l-0.181-0.182c-1.646-1.076-2.382,0.108-2.581,0.851c-0.039,0.11-0.031,0.135-0.012,0.203l1.482,4.603
		c2.095,6.323,5.252,12.422,8.552,19.674c0.84,1.812,1.588,6.42,2.571,7.944c0.516,0.764,0.997,1.482,1.836,2.172
		c0.218,0.17,0.471,0.343,0.812,0.485c0.168,0.072,0.37,0.133,0.589,0.167c0.119,0.014,0.228,0.03,0.354,0.026l0.186-0.007
		l0.132-0.015l0.128-0.018l0.248-0.049c0.178-0.037,0.298-0.084,0.446-0.135c0.285-0.111,0.563-0.269,0.808-0.462
		c0.28-0.239,0.323-0.307,0.452-0.452c0.103-0.13,0.194-0.26,0.267-0.389c0.15-0.256,0.25-0.498,0.319-0.714
		c0.139-0.433,0.183-0.774,0.212-1.044c0.046-0.537,0.027-0.802,0.03-0.803C196.348,380.682,196.316,380.059,196.143,379.241z
		 M193.116,382.549v-0.006v-0.002C193.145,382.708,193.158,382.783,193.116,382.549z"/>
	<path d="M205.856,310.897c-0.091-1.983-0.128-3.912-0.165-3.744c-0.082-1.623-0.199-2.916-0.265-3.137
		c-0.027-0.094-0.086-0.128-0.19-0.101c-0.127,0.007-0.267,0.146-0.399,0.389c-0.267,0.479-0.513,1.338-0.744,2.655
		c-0.616,3.109-0.931,7.542-0.937,7.541l1.706,4.597l-1.716,12.446c-0.004,2.933,1.243,6.101,1.132,9.153
		c-0.099,1.46-1.013,5.259-1.167,6.812l-0.995,2.513c-0.716,6.219-1.493,12.214-2.396,17.016c-0.255,1.348-0.509,2.467-0.718,3.225
		c-0.21,0.767-0.365,1.135-0.377,1.165l0.043,0.197c0.172,0.36,0.396,0.562,0.502,0.834c0.108,0.242,0.261,0.471,0.465,0.603
		c0.223,0.154,0.515,0.182,0.806,0.076c0.296-0.11,0.535-0.272,0.716-0.421c0.113-0.082,0.124-0.11,0.16-0.192
		c0.026-0.061,0.257-0.633,0.487-1.496c0.24-0.868,0.505-2.052,0.77-3.446c0.918-4.897,1.684-10.821,2.396-16.983
		c0.35-3.093,0.689-6.191,0.961-9.348c0.098-1.653,0.093-3.159,0.108-4.689l0.006-4.455l-0.016-14.688l0.018-2.508L205.856,310.897z
		"/>
	<path d="M220.237,301.994c-0.349-0.884-0.804-1.24-1.286-1.322c-0.486-0.068-0.984,0.205-1.287,0.45
		c-0.099,0.066-0.107,0.092-0.132,0.161c-0.042,0.104-0.676,1.969-1.47,4.657c-1.573,5.361-3.393,11.868-4.804,18.818
		c-0.338,1.749-0.659,3.507-0.806,5.396l-0.15,5.329c-0.13,3.491-0.292,6.935-0.45,10.204l-0.88,16.594l-0.147,2.537
		c0.009,0-0.01,8.14,0.062,7.803c0.062,1.636,0.2,2.979,0.441,3.271c0.246,0.315,0.672-0.45,1.154-3.06
		c0.655-3.067,1.209-7.467,1.209-7.467l0.143-2.433l-0.552-14.453l1.9-12.43l0.091-2.696l0.054-2.665
		c0.09-1.633-0.228-7.939,0.096-9.647c1.378-6.875,3.852-8.927,5.421-14.274c0.79-2.665,1.399-4.451,1.432-4.53L220.237,301.994z"/>
</g>
</svg>
